<svg width="61" height="61" viewBox="0 0 61 61" fill="none" xmlns="http://www.w3.org/2000/svg">
<g clip-path="url(#clip0_1_2426)">
<path d="M45.4173 23.2734L45.5086 24.6728L46.8883 24.4219C47.5102 24.3088 48.1299 24.2527 48.7482 24.2527C54.2993 24.2527 58.7996 28.798 58.7996 34.3672C58.7996 39.9273 54.3083 44.4186 48.7482 44.4186H43.9371L43.9371 43.4824L43.937 43.4705C43.8546 34.8147 36.7679 29.8973 30.0598 29.8973C23.7253 29.8973 16.1826 34.951 16.1826 43.4824V44.4817H12.7605C6.44269 44.4817 1.32007 39.3591 1.32007 33.0413C1.32007 26.7236 6.44269 21.6009 12.7605 21.6009C13.1558 21.6009 13.4313 21.6037 13.6914 21.6471L14.8506 21.8403L15.1149 20.6952C16.6908 13.8661 22.7593 8.84741 30.0598 8.84741C38.2312 8.84741 44.8914 15.209 45.4173 23.2734Z" stroke="url(#paint0_linear_1_2426)" stroke-width="2.5"/>
<path fill-rule="evenodd" clip-rule="evenodd" d="M20.4005 43.7397C20.2993 38.3737 24.6528 33.9189 30.0189 33.8176C35.3849 33.8176 39.8397 38.0699 39.9409 43.436C40.0422 48.9032 35.6886 53.358 30.3226 53.358C24.8553 53.4593 20.5018 49.207 20.4005 43.7397ZM25.5641 42.4235L28.2977 45.1571L34.7774 38.5762C34.9799 38.2724 35.3849 38.2724 35.5874 38.4749L37.0048 39.8924C37.2073 40.0949 37.2073 40.1961 37.2073 40.3986C37.2073 40.4998 37.2073 40.7023 37.1061 40.8036L29.7151 48.2957C29.3101 48.7007 28.8039 48.9032 28.2977 48.9032C27.6902 48.9032 27.184 48.7007 26.779 48.2957L23.2354 44.6509C23.0329 44.4484 23.0329 44.0434 23.2354 43.8409L24.6528 42.4235C24.8553 42.221 24.9566 42.221 25.1591 42.221C25.2603 42.221 25.4628 42.221 25.5641 42.4235Z" fill="url(#paint1_linear_1_2426)"/>
</g>
<defs>
<linearGradient id="paint0_linear_1_2426" x1="0.0700685" y1="26.6643" x2="49.8697" y2="26.7408" gradientUnits="userSpaceOnUse">
<stop stop-color="#497BFF"/>
<stop offset="1" stop-color="#A541F9"/>
</linearGradient>
<linearGradient id="paint1_linear_1_2426" x1="20.3988" y1="43.5886" x2="36.6257" y2="43.6044" gradientUnits="userSpaceOnUse">
<stop stop-color="#497BFF"/>
<stop offset="1" stop-color="#A541F9"/>
</linearGradient>
<clipPath id="clip0_1_2426">
<rect width="60" height="60" fill="white" transform="translate(0.0700684 0.47876)"/>
</clipPath>
</defs>
</svg>
