<svg width="61" height="61" viewBox="0 0 61 61" fill="none" xmlns="http://www.w3.org/2000/svg">
<g clip-path="url(#clip0_1_2439)">
<path d="M21.9742 47.1707V50.2814C21.9742 51.8924 25.8627 53.2256 30.6956 53.2256C35.5284 53.2256 39.4169 51.8924 39.4169 50.2814V47.1707C37.1949 48.4483 33.8064 48.9483 30.6956 48.9483C27.5848 48.9483 24.1962 48.4483 21.9742 47.1707Z" fill="url(#paint0_linear_1_2439)"/>
<path d="M21.9742 40.5046V43.6154C21.9742 45.2264 25.8627 46.5596 30.6956 46.5596C35.5284 46.5596 39.4169 45.2264 39.4169 43.6154V40.5046C37.1949 41.7823 33.8064 42.2822 30.6956 42.2822C27.5848 42.2822 24.1962 41.7823 21.9742 40.5046Z" fill="url(#paint1_linear_1_2439)"/>
<path d="M46.0587 23.413L46.15 24.8124L47.5297 24.5615C48.1518 24.4484 48.7717 24.3922 49.3903 24.3922C54.9435 24.3922 59.4455 28.9393 59.4455 34.5106C59.4455 40.0729 54.9525 44.5659 49.3903 44.5659H43.5451V37.3527C43.5451 34.4235 41.5991 32.5596 39.1772 31.4952C36.7788 30.4412 33.6829 30.0396 30.6955 30.0396C27.7132 30.0396 24.6064 30.4243 22.1965 31.4595C19.7644 32.5042 17.792 34.3501 17.792 37.2896V44.5798L13.3833 44.629C7.06636 44.6253 1.94556 39.5022 1.94556 33.1843C1.94556 26.8641 7.07012 21.7396 13.3903 21.7396C13.7857 21.7396 14.0614 21.7424 14.3216 21.7857L15.4809 21.9789L15.7451 20.8338C17.3216 14.0023 23.3923 8.98169 30.6955 8.98169C38.8699 8.98169 45.5326 15.3457 46.0587 23.413Z" stroke="url(#paint2_linear_1_2439)" stroke-width="2.5"/>
<path d="M30.6956 39.8937C35.5122 39.8937 39.4169 38.5755 39.4169 36.9495C39.4169 35.3235 35.5122 34.0054 30.6956 34.0054C25.8789 34.0054 21.9742 35.3235 21.9742 36.9495C21.9742 38.5755 25.8789 39.8937 30.6956 39.8937Z" fill="url(#paint3_linear_1_2439)"/>
</g>
<defs>
<linearGradient id="paint0_linear_1_2439" x1="21.9742" y1="50.1981" x2="36.4564" y2="50.2388" gradientUnits="userSpaceOnUse">
<stop stop-color="#497BFF"/>
<stop offset="1" stop-color="#A541F9"/>
</linearGradient>
<linearGradient id="paint1_linear_1_2439" x1="21.9742" y1="43.5321" x2="36.4564" y2="43.5728" gradientUnits="userSpaceOnUse">
<stop stop-color="#497BFF"/>
<stop offset="1" stop-color="#A541F9"/>
</linearGradient>
<linearGradient id="paint2_linear_1_2439" x1="0.695557" y1="26.8051" x2="50.5122" y2="26.8816" gradientUnits="userSpaceOnUse">
<stop stop-color="#497BFF"/>
<stop offset="1" stop-color="#A541F9"/>
</linearGradient>
<linearGradient id="paint3_linear_1_2439" x1="21.9742" y1="36.9495" x2="36.4564" y2="36.9913" gradientUnits="userSpaceOnUse">
<stop stop-color="#497BFF"/>
<stop offset="1" stop-color="#A541F9"/>
</linearGradient>
<clipPath id="clip0_1_2439">
<rect width="60" height="60" fill="white" transform="translate(0.695557 0.47876)"/>
</clipPath>
</defs>
</svg>
