<svg width="842" height="195" viewBox="0 0 842 195" fill="none" xmlns="http://www.w3.org/2000/svg">
<path d="M9.67895 190.373V164.994L114.336 38.8252L119.17 53.0856H11.6126V21.1809H153.975V46.5596L49.5598 172.728L44.7258 158.468H157.601V190.373H9.67895ZM260.288 190.373V164.994L257.871 159.435V113.995C257.871 105.938 255.374 99.6536 250.379 95.1418C245.545 90.63 238.052 88.3742 227.9 88.3742C220.972 88.3742 214.123 89.5021 207.356 91.758C200.749 93.8527 195.109 96.7532 190.436 100.459L176.901 74.1137C183.991 69.1185 192.531 65.2513 202.522 62.512C212.512 59.7727 222.663 58.4031 232.976 58.4031C252.796 58.4031 268.184 63.076 279.141 72.4218C290.098 81.7676 295.577 96.3503 295.577 116.17V190.373H260.288ZM220.649 192.306C210.498 192.306 201.796 190.614 194.545 187.23C187.294 183.685 181.735 178.932 177.868 172.97C174.001 167.008 172.067 160.321 172.067 152.909C172.067 145.174 173.92 138.407 177.626 132.606C181.493 126.805 187.536 122.293 195.754 119.07C203.972 115.687 214.687 113.995 227.9 113.995H262.464V135.99H232.009C223.147 135.99 217.024 137.44 213.64 140.34C210.417 143.241 208.806 146.866 208.806 151.217C208.806 156.051 210.659 159.918 214.365 162.818C218.232 165.558 223.469 166.927 230.076 166.927C236.36 166.927 242 165.477 246.995 162.577C251.99 159.515 255.616 155.084 257.871 149.283L263.672 166.686C260.933 175.065 255.938 181.43 248.687 185.78C241.436 190.131 232.09 192.306 220.649 192.306ZM382.877 192.306C367.569 192.306 355.645 188.439 347.105 180.704C338.565 172.809 334.295 161.127 334.295 145.658V31.5741H372V145.174C372 150.653 373.45 154.923 376.351 157.984C379.251 160.885 383.199 162.335 388.194 162.335C394.156 162.335 399.232 160.724 403.422 157.501L413.573 184.088C409.706 186.828 405.033 188.922 399.554 190.373C394.237 191.662 388.678 192.306 382.877 192.306ZM314.233 92.2414V63.2371H404.388V92.2414H314.233ZM514.501 190.373V164.994L512.084 159.435V113.995C512.084 105.938 509.586 99.6536 504.591 95.1418C499.757 90.63 492.264 88.3742 482.113 88.3742C475.184 88.3742 468.336 89.5021 461.568 91.758C454.961 93.8527 449.322 96.7532 444.649 100.459L431.113 74.1137C438.203 69.1185 446.744 65.2513 456.734 62.512C466.724 59.7727 476.876 58.4031 487.188 58.4031C507.008 58.4031 522.396 63.076 533.354 72.4218C544.311 81.7676 549.789 96.3503 549.789 116.17V190.373H514.501ZM474.862 192.306C464.71 192.306 456.009 190.614 448.758 187.23C441.507 183.685 435.948 178.932 432.08 172.97C428.213 167.008 426.279 160.321 426.279 152.909C426.279 145.174 428.132 138.407 431.839 132.606C435.706 126.805 441.748 122.293 449.966 119.07C458.184 115.687 468.9 113.995 482.113 113.995H516.676V135.99H486.222C477.359 135.99 471.236 137.44 467.852 140.34C464.63 143.241 463.018 146.866 463.018 151.217C463.018 156.051 464.871 159.918 468.577 162.818C472.445 165.558 477.681 166.927 484.288 166.927C490.572 166.927 496.212 165.477 501.207 162.577C506.202 159.515 509.828 155.084 512.084 149.283L517.885 166.686C515.145 175.065 510.15 181.43 502.899 185.78C495.648 190.131 486.302 192.306 474.862 192.306ZM598.175 192.306C591.73 192.306 586.171 190.131 581.498 185.78C576.986 181.268 574.73 175.548 574.73 168.619C574.73 161.691 576.986 156.131 581.498 151.942C586.171 147.591 591.73 145.416 598.175 145.416C604.782 145.416 610.341 147.591 614.853 151.942C619.364 156.131 621.62 161.691 621.62 168.619C621.62 175.548 619.364 181.268 614.853 185.78C610.341 190.131 604.782 192.306 598.175 192.306Z" fill="#F9F9F9"/>
<path d="M719.332 190.373V164.994L716.915 159.435V113.995C716.915 105.938 714.418 99.6536 709.422 95.1418C704.588 90.63 697.096 88.3742 686.944 88.3742C680.015 88.3742 673.167 89.5021 666.399 91.758C659.793 93.8527 654.153 96.7532 649.48 100.459L635.945 74.1137C643.035 69.1185 651.575 65.2513 661.565 62.512C671.556 59.7727 681.707 58.4031 692.02 58.4031C711.839 58.4031 727.228 63.076 738.185 72.4218C749.142 81.7676 754.621 96.3503 754.621 116.17V190.373H719.332ZM679.693 192.306C669.542 192.306 660.84 190.614 653.589 187.23C646.338 183.685 640.779 178.932 636.912 172.97C633.044 167.008 631.111 160.321 631.111 152.909C631.111 145.174 632.964 138.407 636.67 132.606C640.537 126.805 646.58 122.293 654.798 119.07C663.016 115.687 673.731 113.995 686.944 113.995H721.508V135.99H691.053C682.191 135.99 676.067 137.44 672.684 140.34C669.461 143.241 667.85 146.866 667.85 151.217C667.85 156.051 669.703 159.918 673.409 162.818C677.276 165.558 682.513 166.927 689.119 166.927C695.404 166.927 701.043 165.477 706.039 162.577C711.034 159.515 714.659 155.084 716.915 149.283L722.716 166.686C719.977 175.065 714.982 181.43 707.73 185.78C700.479 190.131 691.134 192.306 679.693 192.306ZM788.746 190.373V60.3367H826.452V190.373H788.746ZM807.599 42.209C800.67 42.209 795.03 40.1948 790.68 36.1664C786.329 32.1381 784.154 27.1429 784.154 21.1809C784.154 15.2189 786.329 10.2237 790.68 6.19534C795.03 2.16696 800.67 0.152773 807.599 0.152773C814.528 0.152773 820.167 2.0864 824.518 5.95364C828.869 9.65975 831.044 14.4938 831.044 20.4558C831.044 26.74 828.869 31.9769 824.518 36.1664C820.329 40.1948 814.689 42.209 807.599 42.209Z" fill="url(#paint0_linear_317_3769)"/>
<rect x="0.494019" y="134.443" width="840.778" height="60.5647" fill="url(#paint1_linear_317_3769)"/>
<defs>
<linearGradient id="paint0_linear_317_3769" x1="622.168" y1="105.871" x2="806.49" y2="106.108" gradientUnits="userSpaceOnUse">
<stop stop-color="#497BFF"/>
<stop offset="1" stop-color="#A541F9"/>
</linearGradient>
<linearGradient id="paint1_linear_317_3769" x1="420.883" y1="134.443" x2="420.883" y2="195.008" gradientUnits="userSpaceOnUse">
<stop stop-color="#010C29" stop-opacity="0"/>
<stop offset="1" stop-color="#010C29"/>
</linearGradient>
</defs>
</svg>
