<svg width="152" height="49" viewBox="0 0 152 49" fill="none" xmlns="http://www.w3.org/2000/svg">
<path d="M24.6811 40.9374C24.5313 40.9249 24.3846 40.9155 24.2348 40.903C24.2411 40.8718 24.2473 40.8406 24.2473 40.8063C27.4618 37.5606 30.6762 34.3119 33.8969 31.0662C34.1809 30.7791 34.4929 30.5138 34.8206 30.2111C34.5304 30.0364 34.3244 30.0925 34.1309 30.0925C30.6263 30.0894 29.6058 30.1955 26.1011 30.2111C25.608 30.2111 25.53 30.1269 25.7484 29.6587C26.4101 28.245 27.3057 27.1184 28.9036 26.7033C29.5246 26.5442 30.1457 26.4942 30.7761 26.4942C35.7226 26.4942 38.188 26.3757 43.1345 26.3694C43.3217 26.3694 43.5121 26.3694 43.6993 26.3694C43.743 26.3757 43.7867 26.3819 43.8273 26.3913C43.8273 26.4318 43.8273 26.4693 43.8242 26.5098C40.4818 29.846 37.1394 33.1821 33.8001 36.5214C33.6378 36.6244 33.5567 36.7336 33.8376 36.7461C34.1621 36.7586 34.4867 36.7336 34.8113 36.7243C38.2223 36.7305 41.6396 36.8772 45.0413 36.6993C47.875 36.5526 50.2406 34.6427 51.2142 31.9619C52.4751 28.4947 50.9802 24.7716 47.9748 23.0457C46.7889 22.3654 45.5032 22.0721 44.1519 22.0096C42.8505 21.9503 41.5678 22.1001 40.2352 22.484C40.5255 21.6008 40.6503 20.7707 40.6784 19.9062C40.7564 17.55 39.8826 15.6463 38.1162 14.1421C36.9365 13.1372 35.554 12.6503 33.9874 12.5473C30.6138 12.3258 28.2544 13.8581 26.7814 16.7542C25.9575 18.3739 25.9201 20.1652 26.4506 21.9316C26.4974 22.0845 26.6035 22.2905 26.5442 22.3873C26.4257 22.5807 26.2509 22.3748 26.1011 22.3436C23.9259 21.8848 21.7444 21.7007 19.6722 22.6962C16.8697 24.0444 15.3093 26.2477 15.2313 29.434C15.147 32.7952 17.6687 35.6008 20.337 36.4122C21.0735 36.6369 21.8225 36.8023 22.612 36.7399C22.6339 36.7867 22.6526 36.8304 22.6744 36.8772C21.7163 37.8165 20.7551 38.7497 19.8002 39.6922C18.9981 40.4848 18.9513 40.4474 17.8965 39.9605C14.9161 38.5905 12.8938 36.331 11.6861 33.3257C11.3584 32.5112 11.2304 31.6217 11.0713 30.751C10.7966 29.253 11.0151 27.78 11.4489 26.3725C12.7752 22.0783 15.6401 19.3289 20.0124 18.2116C20.5616 18.0712 21.139 18.0244 21.707 17.9713C21.9691 17.9463 22.0534 17.8933 22.1189 17.6031C22.7712 14.7038 24.2192 12.2914 26.6379 10.5219C28.32 9.29234 30.18 8.58703 32.2959 8.3717C37.7698 7.80995 42.0297 11.0525 43.7805 14.7007C44.2143 15.6026 44.5326 16.5482 44.6949 17.5344C44.7448 17.8309 44.7854 17.9401 45.1006 17.9713C46.8607 18.1461 48.5616 18.5455 50.0939 19.4662C53.0836 21.2638 54.9561 23.8384 55.6333 27.3025C56.7599 33.076 53.2896 38.6342 47.9187 40.4099C46.7702 40.7907 45.5812 40.928 44.3672 40.9249C38.1443 40.9124 31.9214 40.9186 25.6985 40.9186C25.3989 40.9186 25.0993 40.928 24.7997 40.9311C24.7623 40.9311 24.7217 40.9311 24.6842 40.9311L24.6811 40.9374Z" fill="url(#paint0_linear_1_2131)"/>
<path d="M66.898 33.1226V30.5926L77.3312 18.015L77.8131 19.4366H67.0908V16.256H81.2828V18.786L70.8737 31.3636L70.3918 29.942H81.6442V33.1226H66.898ZM91.881 33.1226V30.5926L91.64 30.0384V25.5085C91.64 24.7054 91.3911 24.0789 90.8931 23.6291C90.4112 23.1793 89.6643 22.9545 88.6523 22.9545C87.9615 22.9545 87.2788 23.0669 86.6042 23.2918C85.9456 23.5006 85.3834 23.7898 84.9175 24.1592L83.5682 21.5329C84.275 21.0349 85.1264 20.6494 86.1223 20.3763C87.1182 20.1032 88.1302 19.9667 89.1583 19.9667C91.134 19.9667 92.6681 20.4325 93.7604 21.3642C94.8527 22.2959 95.3989 23.7496 95.3989 25.7254V33.1226H91.881ZM87.9294 33.3153C86.9174 33.3153 86.05 33.1467 85.3271 32.8093C84.6043 32.4559 84.0501 31.9821 83.6646 31.3877C83.2791 30.7934 83.0863 30.1267 83.0863 29.3878C83.0863 28.6168 83.271 27.9421 83.6405 27.3638C84.026 26.7856 84.6284 26.3358 85.4476 26.0145C86.2669 25.6772 87.3351 25.5085 88.6523 25.5085H92.0979V27.7012H89.0619C88.1784 27.7012 87.568 27.8457 87.2307 28.1349C86.9094 28.424 86.7488 28.7855 86.7488 29.2192C86.7488 29.7011 86.9335 30.0866 87.3029 30.3757C87.6885 30.6488 88.2105 30.7853 88.8691 30.7853C89.4956 30.7853 90.0578 30.6408 90.5558 30.3516C91.0537 30.0464 91.4152 29.6047 91.64 29.0264L92.2183 30.7612C91.9452 31.5965 91.4473 32.231 90.7244 32.6648C90.0016 33.0985 89.0699 33.3153 87.9294 33.3153ZM104.102 33.3153C102.576 33.3153 101.387 32.9298 100.536 32.1588C99.6843 31.3717 99.2586 30.2071 99.2586 28.665V17.2921H103.017V28.6168C103.017 29.1629 103.162 29.5886 103.451 29.8938C103.74 30.183 104.134 30.3275 104.632 30.3275C105.226 30.3275 105.732 30.1669 106.15 29.8456L107.162 32.4961C106.776 32.7692 106.31 32.978 105.764 33.1226C105.234 33.2511 104.68 33.3153 104.102 33.3153ZM97.2587 23.34V20.4486H106.246V23.34H97.2587ZM117.223 33.1226V30.5926L116.982 30.0384V25.5085C116.982 24.7054 116.733 24.0789 116.235 23.6291C115.753 23.1793 115.006 22.9545 113.994 22.9545C113.304 22.9545 112.621 23.0669 111.946 23.2918C111.288 23.5006 110.725 23.7898 110.26 24.1592L108.91 21.5329C109.617 21.0349 110.468 20.6494 111.464 20.3763C112.46 20.1032 113.472 19.9667 114.5 19.9667C116.476 19.9667 118.01 20.4325 119.103 21.3642C120.195 22.2959 120.741 23.7496 120.741 25.7254V33.1226H117.223ZM113.272 33.3153C112.26 33.3153 111.392 33.1467 110.669 32.8093C109.946 32.4559 109.392 31.9821 109.007 31.3877C108.621 30.7934 108.428 30.1267 108.428 29.3878C108.428 28.6168 108.613 27.9421 108.983 27.3638C109.368 26.7856 109.971 26.3358 110.79 26.0145C111.609 25.6772 112.677 25.5085 113.994 25.5085H117.44V27.7012H114.404C113.521 27.7012 112.91 27.8457 112.573 28.1349C112.252 28.424 112.091 28.7855 112.091 29.2192C112.091 29.7011 112.276 30.0866 112.645 30.3757C113.031 30.6488 113.553 30.7853 114.211 30.7853C114.838 30.7853 115.4 30.6408 115.898 30.3516C116.396 30.0464 116.757 29.6047 116.982 29.0264L117.56 30.7612C117.287 31.5965 116.789 32.231 116.067 32.6648C115.344 33.0985 114.412 33.3153 113.272 33.3153ZM125.565 33.3153C124.922 33.3153 124.368 33.0985 123.902 32.6648C123.452 32.215 123.227 31.6447 123.227 30.954C123.227 30.2633 123.452 29.7091 123.902 29.2914C124.368 28.8577 124.922 28.6409 125.565 28.6409C126.223 28.6409 126.777 28.8577 127.227 29.2914C127.677 29.7091 127.902 30.2633 127.902 30.954C127.902 31.6447 127.677 32.215 127.227 32.6648C126.777 33.0985 126.223 33.3153 125.565 33.3153Z" fill="#2F2F2F"/>
<path d="M138.669 33.1226V30.5926L138.428 30.0384V25.5085C138.428 24.7054 138.179 24.0789 137.681 23.6291C137.199 23.1793 136.452 22.9545 135.44 22.9545C134.749 22.9545 134.066 23.0669 133.392 23.2918C132.733 23.5006 132.171 23.7898 131.705 24.1592L130.356 21.5329C131.063 21.0349 131.914 20.6494 132.91 20.3763C133.906 20.1032 134.918 19.9667 135.946 19.9667C137.922 19.9667 139.456 20.4325 140.548 21.3642C141.64 22.2959 142.186 23.7496 142.186 25.7254V33.1226H138.669ZM134.717 33.3153C133.705 33.3153 132.838 33.1467 132.115 32.8093C131.392 32.4559 130.838 31.9821 130.452 31.3877C130.067 30.7934 129.874 30.1267 129.874 29.3878C129.874 28.6168 130.059 27.9421 130.428 27.3638C130.814 26.7856 131.416 26.3358 132.235 26.0145C133.054 25.6772 134.123 25.5085 135.44 25.5085H138.885V27.7012H135.85C134.966 27.7012 134.356 27.8457 134.018 28.1349C133.697 28.424 133.536 28.7855 133.536 29.2192C133.536 29.7011 133.721 30.0866 134.091 30.3757C134.476 30.6488 134.998 30.7853 135.657 30.7853C136.283 30.7853 136.845 30.6408 137.343 30.3516C137.841 30.0464 138.203 29.6047 138.428 29.0264L139.006 30.7612C138.733 31.5965 138.235 32.231 137.512 32.6648C136.789 33.0985 135.858 33.3153 134.717 33.3153ZM145.588 33.1226V20.1594H149.347V33.1226H145.588ZM147.468 18.3523C146.777 18.3523 146.215 18.1515 145.781 17.7499C145.347 17.3483 145.131 16.8504 145.131 16.256C145.131 15.6617 145.347 15.1637 145.781 14.7622C146.215 14.3606 146.777 14.1598 147.468 14.1598C148.159 14.1598 148.721 14.3525 149.154 14.7381C149.588 15.1075 149.805 15.5894 149.805 16.1838C149.805 16.8102 149.588 17.3323 149.154 17.7499C148.737 18.1515 148.175 18.3523 147.468 18.3523Z" fill="url(#paint1_linear_1_2131)"/>
<defs>
<linearGradient id="paint0_linear_1_2131" x1="10.9497" y1="24.6225" x2="48.2258" y2="24.6725" gradientUnits="userSpaceOnUse">
<stop stop-color="#497BFF"/>
<stop offset="1" stop-color="#A541F9"/>
</linearGradient>
<linearGradient id="paint1_linear_1_2131" x1="128.982" y1="24.6224" x2="148.079" y2="24.6477" gradientUnits="userSpaceOnUse">
<stop stop-color="#497BFF"/>
<stop offset="1" stop-color="#A541F9"/>
</linearGradient>
</defs>
</svg>
